<?xml version="1.0" encoding="UTF-8" standalone="no"?>
<!DOCTYPE svg PUBLIC "-//W3C//DTD SVG 1.1//EN"
 "http://www.w3.org/Graphics/SVG/1.1/DTD/svg11.dtd">
<!-- Generated by graphviz version 2.43.0 (0)
 -->
<!-- Title: dependency&#45;cruiser output Pages: 1 -->
<svg width="1049pt" height="414pt"
 viewBox="0.00 0.00 1049.00 414.00" xmlns="http://www.w3.org/2000/svg" xmlns:xlink="http://www.w3.org/1999/xlink">
<g id="graph0" class="graph" transform="scale(1 1) rotate(0) translate(4 410)">
<title>dependency&#45;cruiser output</title>
<polygon fill="white" stroke="transparent" points="-4,4 -4,-410 1045,-410 1045,4 -4,4"/>
<g id="clust1" class="cluster">
<title>cluster_src</title>
<path fill="#ffffff" stroke="black" stroke-width="2" d="M20,-8C20,-8 1021,-8 1021,-8 1027,-8 1033,-14 1033,-20 1033,-20 1033,-386 1033,-386 1033,-392 1027,-398 1021,-398 1021,-398 20,-398 20,-398 14,-398 8,-392 8,-386 8,-386 8,-20 8,-20 8,-14 14,-8 20,-8"/>
<text text-anchor="middle" x="520.5" y="-386.8" font-family="Helvetica,sans-Serif" font-weight="bold" font-size="9.00">src</text>
</g>
<g id="clust2" class="cluster">
<title>cluster_src/api</title>
<path fill="#ffffff" stroke="black" stroke-width="2" d="M933,-206C933,-206 1013,-206 1013,-206 1019,-206 1025,-212 1025,-218 1025,-218 1025,-306 1025,-306 1025,-312 1019,-318 1013,-318 1013,-318 933,-318 933,-318 927,-318 921,-312 921,-306 921,-306 921,-218 921,-218 921,-212 927,-206 933,-206"/>
<text text-anchor="middle" x="973" y="-306.8" font-family="Helvetica,sans-Serif" font-weight="bold" font-size="9.00">api</text>
</g>
<g id="clust3" class="cluster">
<title>cluster_src/api/utils</title>
<path fill="#ffffff" stroke="black" stroke-width="2" d="M941,-240C941,-240 1005,-240 1005,-240 1011,-240 1017,-246 1017,-252 1017,-252 1017,-280 1017,-280 1017,-286 1011,-292 1005,-292 1005,-292 941,-292 941,-292 935,-292 929,-286 929,-280 929,-280 929,-252 929,-252 929,-246 935,-240 941,-240"/>
<text text-anchor="middle" x="973" y="-280.8" font-family="Helvetica,sans-Serif" font-weight="bold" font-size="9.00">utils</text>
</g>
<g id="clust4" class="cluster">
<title>cluster_src/components</title>
<path fill="#ffffff" stroke="black" stroke-width="2" d="M608,-16C608,-16 901,-16 901,-16 907,-16 913,-22 913,-28 913,-28 913,-360 913,-360 913,-366 907,-372 901,-372 901,-372 608,-372 608,-372 602,-372 596,-366 596,-360 596,-360 596,-28 596,-28 596,-22 602,-16 608,-16"/>
<text text-anchor="middle" x="754.5" y="-360.8" font-family="Helvetica,sans-Serif" font-weight="bold" font-size="9.00">components</text>
</g>
<g id="clust5" class="cluster">
<title>cluster_src/components/Footbar</title>
<path fill="#ffffff" stroke="black" stroke-width="2" d="M616,-24C616,-24 874.5,-24 874.5,-24 880.5,-24 886.5,-30 886.5,-36 886.5,-36 886.5,-64 886.5,-64 886.5,-70 880.5,-76 874.5,-76 874.5,-76 616,-76 616,-76 610,-76 604,-70 604,-64 604,-64 604,-36 604,-36 604,-30 610,-24 616,-24"/>
<text text-anchor="middle" x="745.25" y="-64.8" font-family="Helvetica,sans-Serif" font-weight="bold" font-size="9.00">Footbar</text>
</g>
<g id="clust6" class="cluster">
<title>cluster_src/components/Statistics</title>
<path fill="#ffffff" stroke="black" stroke-width="2" d="M616,-144C616,-144 893,-144 893,-144 899,-144 905,-150 905,-156 905,-156 905,-334 905,-334 905,-340 899,-346 893,-346 893,-346 616,-346 616,-346 610,-346 604,-340 604,-334 604,-334 604,-156 604,-156 604,-150 610,-144 616,-144"/>
<text text-anchor="middle" x="754.5" y="-334.8" font-family="Helvetica,sans-Serif" font-weight="bold" font-size="9.00">Statistics</text>
</g>
<g id="clust7" class="cluster">
<title>cluster_src/components/Statistics/Hooks</title>
<path fill="#ffffff" stroke="black" stroke-width="2" d="M696.5,-152C696.5,-152 885,-152 885,-152 891,-152 897,-158 897,-164 897,-164 897,-192 897,-192 897,-198 891,-204 885,-204 885,-204 696.5,-204 696.5,-204 690.5,-204 684.5,-198 684.5,-192 684.5,-192 684.5,-164 684.5,-164 684.5,-158 690.5,-152 696.5,-152"/>
<text text-anchor="middle" x="790.75" y="-192.8" font-family="Helvetica,sans-Serif" font-weight="bold" font-size="9.00">Hooks</text>
</g>
<g id="clust8" class="cluster">
<title>cluster_src/components/Statistics/utils</title>
<path fill="#ffffff" stroke="black" stroke-width="2" d="M823.5,-212C823.5,-212 879.5,-212 879.5,-212 885.5,-212 891.5,-218 891.5,-224 891.5,-224 891.5,-282 891.5,-282 891.5,-288 885.5,-294 879.5,-294 879.5,-294 823.5,-294 823.5,-294 817.5,-294 811.5,-288 811.5,-282 811.5,-282 811.5,-224 811.5,-224 811.5,-218 817.5,-212 823.5,-212"/>
<text text-anchor="middle" x="851.5" y="-282.8" font-family="Helvetica,sans-Serif" font-weight="bold" font-size="9.00">utils</text>
</g>
<g id="clust9" class="cluster">
<title>cluster_src/components/Topbar</title>
<path fill="#ffffff" stroke="black" stroke-width="2" d="M616,-84C616,-84 767,-84 767,-84 773,-84 779,-90 779,-96 779,-96 779,-124 779,-124 779,-130 773,-136 767,-136 767,-136 616,-136 616,-136 610,-136 604,-130 604,-124 604,-124 604,-96 604,-96 604,-90 610,-84 616,-84"/>
<text text-anchor="middle" x="691.5" y="-124.8" font-family="Helvetica,sans-Serif" font-weight="bold" font-size="9.00">Topbar</text>
</g>
<g id="clust10" class="cluster">
<title>cluster_src/pages</title>
<path fill="#ffffff" stroke="black" stroke-width="2" d="M427,-123C427,-123 576,-123 576,-123 582,-123 588,-129 588,-135 588,-135 588,-257 588,-257 588,-263 582,-269 576,-269 576,-269 427,-269 427,-269 421,-269 415,-263 415,-257 415,-257 415,-135 415,-135 415,-129 421,-123 427,-123"/>
<text text-anchor="middle" x="501.5" y="-257.8" font-family="Helvetica,sans-Serif" font-weight="bold" font-size="9.00">pages</text>
</g>
<g id="clust11" class="cluster">
<title>cluster_src/pages/Home</title>
<path fill="#ffffff" stroke="black" stroke-width="2" d="M435,-191C435,-191 560.5,-191 560.5,-191 566.5,-191 572.5,-197 572.5,-203 572.5,-203 572.5,-231 572.5,-231 572.5,-237 566.5,-243 560.5,-243 560.5,-243 435,-243 435,-243 429,-243 423,-237 423,-231 423,-231 423,-203 423,-203 423,-197 429,-191 435,-191"/>
<text text-anchor="middle" x="497.75" y="-231.8" font-family="Helvetica,sans-Serif" font-weight="bold" font-size="9.00">Home</text>
</g>
<g id="clust12" class="cluster">
<title>cluster_src/pages/Statistics</title>
<path fill="#ffffff" stroke="black" stroke-width="2" d="M435,-131C435,-131 568,-131 568,-131 574,-131 580,-137 580,-143 580,-143 580,-171 580,-171 580,-177 574,-183 568,-183 568,-183 435,-183 435,-183 429,-183 423,-177 423,-171 423,-171 423,-143 423,-143 423,-137 429,-131 435,-131"/>
<text text-anchor="middle" x="501.5" y="-171.8" font-family="Helvetica,sans-Serif" font-weight="bold" font-size="9.00">Statistics</text>
</g>
<g id="clust13" class="cluster">
<title>cluster_src/routes</title>
<path fill="#ffffff" stroke="black" stroke-width="2" d="M180,-131C180,-131 395,-131 395,-131 401,-131 407,-137 407,-143 407,-143 407,-171 407,-171 407,-177 401,-183 395,-183 395,-183 180,-183 180,-183 174,-183 168,-177 168,-171 168,-171 168,-143 168,-143 168,-137 174,-131 180,-131"/>
<text text-anchor="middle" x="287.5" y="-171.8" font-family="Helvetica,sans-Serif" font-weight="bold" font-size="9.00">routes</text>
</g>
<!-- src/App.tsx -->
<g id="node1" class="node">
<title>src/App.tsx</title>
<g id="a_node1"><a xlink:href="src/App.tsx" xlink:title="App.tsx">
<path fill="#bbfeff" stroke="black" d="M151.5,-110C151.5,-110 109.5,-110 109.5,-110 106.5,-110 103.5,-107 103.5,-104 103.5,-104 103.5,-98 103.5,-98 103.5,-95 106.5,-92 109.5,-92 109.5,-92 151.5,-92 151.5,-92 154.5,-92 157.5,-95 157.5,-98 157.5,-98 157.5,-104 157.5,-104 157.5,-107 154.5,-110 151.5,-110"/>
<text text-anchor="start" x="113" y="-98.8" font-family="Helvetica,sans-Serif" font-size="9.00">App.tsx</text>
</a>
</g>
</g>
<!-- src/components/Footbar/index.ts -->
<g id="node2" class="node">
<title>src/components/Footbar/index.ts</title>
<g id="a_node2"><a xlink:href="src/components/Footbar/index.ts" xlink:title="index.ts">
<path fill="#ddfeff" stroke="black" d="M660,-50C660,-50 618,-50 618,-50 615,-50 612,-47 612,-44 612,-44 612,-38 612,-38 612,-35 615,-32 618,-32 618,-32 660,-32 660,-32 663,-32 666,-35 666,-38 666,-38 666,-44 666,-44 666,-47 663,-50 660,-50"/>
<text text-anchor="start" x="620.5" y="-38.8" font-family="Helvetica,sans-Serif" font-size="9.00">index.ts</text>
</a>
</g>
</g>
<!-- src/App.tsx&#45;&gt;src/components/Footbar/index.ts -->
<g id="edge1" class="edge">
<title>src/App.tsx&#45;&gt;src/components/Footbar/index.ts</title>
<path fill="none" stroke="#000000" stroke-width="2" stroke-opacity="0.200000" d="M153.85,-91.95C182.96,-80.99 235.67,-64 282.5,-64 282.5,-64 282.5,-64 459,-64 510.68,-64 570.08,-54.45 605.8,-47.66"/>
<polygon fill="#000000" fill-opacity="0.200000" stroke="#000000" stroke-width="2" stroke-opacity="0.200000" points="606.26,-49.71 611.75,-46.51 605.46,-45.58 606.26,-49.71"/>
</g>
<!-- src/components/Topbar/index.ts -->
<g id="node3" class="node">
<title>src/components/Topbar/index.ts</title>
<g id="a_node3"><a xlink:href="src/components/Topbar/index.ts" xlink:title="index.ts">
<path fill="#ddfeff" stroke="black" d="M660,-110C660,-110 618,-110 618,-110 615,-110 612,-107 612,-104 612,-104 612,-98 612,-98 612,-95 615,-92 618,-92 618,-92 660,-92 660,-92 663,-92 666,-95 666,-98 666,-98 666,-104 666,-104 666,-107 663,-110 660,-110"/>
<text text-anchor="start" x="620.5" y="-98.8" font-family="Helvetica,sans-Serif" font-size="9.00">index.ts</text>
</a>
</g>
</g>
<!-- src/App.tsx&#45;&gt;src/components/Topbar/index.ts -->
<g id="edge2" class="edge">
<title>src/App.tsx&#45;&gt;src/components/Topbar/index.ts</title>
<path fill="none" stroke="#000000" stroke-width="2" stroke-opacity="0.200000" d="M157.69,-101C187.8,-101 238.72,-101 282.5,-101 282.5,-101 282.5,-101 459,-101 510.2,-101 569.63,-101 605.5,-101"/>
<polygon fill="#000000" fill-opacity="0.200000" stroke="#000000" stroke-width="2" stroke-opacity="0.200000" points="605.91,-103.1 611.91,-101 605.91,-98.9 605.91,-103.1"/>
</g>
<!-- src/routes/index.ts -->
<g id="node4" class="node">
<title>src/routes/index.ts</title>
<g id="a_node4"><a xlink:href="src/routes/index.ts" xlink:title="index.ts">
<path fill="#ddfeff" stroke="black" d="M224,-157C224,-157 182,-157 182,-157 179,-157 176,-154 176,-151 176,-151 176,-145 176,-145 176,-142 179,-139 182,-139 182,-139 224,-139 224,-139 227,-139 230,-142 230,-145 230,-145 230,-151 230,-151 230,-154 227,-157 224,-157"/>
<text text-anchor="start" x="184.5" y="-145.8" font-family="Helvetica,sans-Serif" font-size="9.00">index.ts</text>
</a>
</g>
</g>
<!-- src/App.tsx&#45;&gt;src/routes/index.ts -->
<g id="edge3" class="edge">
<title>src/App.tsx&#45;&gt;src/routes/index.ts</title>
<path fill="none" stroke="#000000" stroke-width="2" stroke-opacity="0.200000" d="M152.92,-110.12C155.51,-111.82 157.96,-113.78 160,-116 166.19,-122.75 161.41,-128.63 168,-135 168.85,-135.82 169.76,-136.6 170.71,-137.32"/>
<polygon fill="#000000" fill-opacity="0.200000" stroke="#000000" stroke-width="2" stroke-opacity="0.200000" points="169.61,-139.11 175.8,-140.56 171.87,-135.56 169.61,-139.11"/>
</g>
<!-- src/components/Footbar/Footer.tsx -->
<g id="node7" class="node">
<title>src/components/Footbar/Footer.tsx</title>
<g id="a_node7"><a xlink:href="src/components/Footbar/Footer.tsx" xlink:title="Footer.tsx">
<path fill="#bbfeff" stroke="black" d="M764,-50C764,-50 716,-50 716,-50 713,-50 710,-47 710,-44 710,-44 710,-38 710,-38 710,-35 713,-32 716,-32 716,-32 764,-32 764,-32 767,-32 770,-35 770,-38 770,-38 770,-44 770,-44 770,-47 767,-50 764,-50"/>
<text text-anchor="start" x="718" y="-38.8" font-family="Helvetica,sans-Serif" font-size="9.00">Footer.tsx</text>
</a>
</g>
</g>
<!-- src/components/Footbar/index.ts&#45;&gt;src/components/Footbar/Footer.tsx -->
<g id="edge5" class="edge">
<title>src/components/Footbar/index.ts&#45;&gt;src/components/Footbar/Footer.tsx</title>
<path fill="none" stroke="#000000" stroke-width="2" stroke-opacity="0.200000" d="M666.01,-41C677.43,-41 691.01,-41 703.35,-41"/>
<polygon fill="#000000" fill-opacity="0.200000" stroke="#000000" stroke-width="2" stroke-opacity="0.200000" points="703.67,-43.1 709.67,-41 703.67,-38.9 703.67,-43.1"/>
</g>
<!-- src/components/Topbar/Topbar.tsx -->
<g id="node17" class="node">
<title>src/components/Topbar/Topbar.tsx</title>
<g id="a_node17"><a xlink:href="src/components/Topbar/Topbar.tsx" xlink:title="Topbar.tsx">
<path fill="#bbfeff" stroke="black" d="M765,-110C765,-110 715,-110 715,-110 712,-110 709,-107 709,-104 709,-104 709,-98 709,-98 709,-95 712,-92 715,-92 715,-92 765,-92 765,-92 768,-92 771,-95 771,-98 771,-98 771,-104 771,-104 771,-107 768,-110 765,-110"/>
<text text-anchor="start" x="717" y="-98.8" font-family="Helvetica,sans-Serif" font-size="9.00">Topbar.tsx</text>
</a>
</g>
</g>
<!-- src/components/Topbar/index.ts&#45;&gt;src/components/Topbar/Topbar.tsx -->
<g id="edge15" class="edge">
<title>src/components/Topbar/index.ts&#45;&gt;src/components/Topbar/Topbar.tsx</title>
<path fill="none" stroke="#000000" stroke-width="2" stroke-opacity="0.200000" d="M666.01,-101C677.23,-101 690.55,-101 702.72,-101"/>
<polygon fill="#000000" fill-opacity="0.200000" stroke="#000000" stroke-width="2" stroke-opacity="0.200000" points="702.96,-103.1 708.96,-101 702.96,-98.9 702.96,-103.1"/>
</g>
<!-- src/routes/Navigation.tsx -->
<g id="node24" class="node">
<title>src/routes/Navigation.tsx</title>
<g id="a_node24"><a xlink:href="src/routes/Navigation.tsx" xlink:title="Navigation.tsx">
<path fill="#bbfeff" stroke="black" d="M318,-157C318,-157 249,-157 249,-157 246,-157 243,-154 243,-151 243,-151 243,-145 243,-145 243,-142 246,-139 249,-139 249,-139 318,-139 318,-139 321,-139 324,-142 324,-145 324,-145 324,-151 324,-151 324,-154 321,-157 318,-157"/>
<text text-anchor="start" x="251" y="-145.8" font-family="Helvetica,sans-Serif" font-size="9.00">Navigation.tsx</text>
</a>
</g>
</g>
<!-- src/routes/index.ts&#45;&gt;src/routes/Navigation.tsx -->
<g id="edge22" class="edge">
<title>src/routes/index.ts&#45;&gt;src/routes/Navigation.tsx</title>
<path fill="none" stroke="#000000" stroke-width="2" stroke-opacity="0.200000" d="M230.14,-148C232.32,-148 234.56,-148 236.83,-148"/>
<polygon fill="#000000" fill-opacity="0.200000" stroke="#000000" stroke-width="2" stroke-opacity="0.200000" points="236.89,-150.1 242.89,-148 236.89,-145.9 236.89,-150.1"/>
</g>
<!-- src/api/players.tsx -->
<g id="node5" class="node">
<title>src/api/players.tsx</title>
<g id="a_node5"><a xlink:href="src/api/players.tsx" xlink:title="players.tsx">
<path fill="#bbfeff" stroke="black" d="M999.5,-232C999.5,-232 946.5,-232 946.5,-232 943.5,-232 940.5,-229 940.5,-226 940.5,-226 940.5,-220 940.5,-220 940.5,-217 943.5,-214 946.5,-214 946.5,-214 999.5,-214 999.5,-214 1002.5,-214 1005.5,-217 1005.5,-220 1005.5,-220 1005.5,-226 1005.5,-226 1005.5,-229 1002.5,-232 999.5,-232"/>
<text text-anchor="start" x="948.5" y="-220.8" font-family="Helvetica,sans-Serif" font-size="9.00">players.tsx</text>
</a>
</g>
</g>
<!-- src/api/utils/constants.ts -->
<g id="node6" class="node">
<title>src/api/utils/constants.ts</title>
<g id="a_node6"><a xlink:href="src/api/utils/constants.ts" xlink:title="constants.ts">
<path fill="#ccffcc" stroke="black" d="M1003,-266C1003,-266 943,-266 943,-266 940,-266 937,-263 937,-260 937,-260 937,-254 937,-254 937,-251 940,-248 943,-248 943,-248 1003,-248 1003,-248 1006,-248 1009,-251 1009,-254 1009,-254 1009,-260 1009,-260 1009,-263 1006,-266 1003,-266"/>
<text text-anchor="start" x="945" y="-254.8" font-family="Helvetica,sans-Serif" font-size="9.00">constants.ts</text>
</a>
</g>
</g>
<!-- src/components/Footbar/styles.ts -->
<g id="node8" class="node">
<title>src/components/Footbar/styles.ts</title>
<g id="a_node8"><a xlink:href="src/components/Footbar/styles.ts" xlink:title="styles.ts">
<path fill="#ddfeff" stroke="black" d="M872.5,-50C872.5,-50 830.5,-50 830.5,-50 827.5,-50 824.5,-47 824.5,-44 824.5,-44 824.5,-38 824.5,-38 824.5,-35 827.5,-32 830.5,-32 830.5,-32 872.5,-32 872.5,-32 875.5,-32 878.5,-35 878.5,-38 878.5,-38 878.5,-44 878.5,-44 878.5,-47 875.5,-50 872.5,-50"/>
<text text-anchor="start" x="833" y="-38.8" font-family="Helvetica,sans-Serif" font-size="9.00">styles.ts</text>
</a>
</g>
</g>
<!-- src/components/Footbar/Footer.tsx&#45;&gt;src/components/Footbar/styles.ts -->
<g id="edge4" class="edge">
<title>src/components/Footbar/Footer.tsx&#45;&gt;src/components/Footbar/styles.ts</title>
<path fill="none" stroke="#000000" stroke-width="2" stroke-opacity="0.200000" d="M770.06,-41C784.8,-41 802.77,-41 817.97,-41"/>
<polygon fill="#000000" fill-opacity="0.200000" stroke="#000000" stroke-width="2" stroke-opacity="0.200000" points="818.31,-43.1 824.31,-41 818.31,-38.9 818.31,-43.1"/>
</g>
<!-- src/components/Statistics/Hooks/usePlayer.test.tsx -->
<g id="node9" class="node">
<title>src/components/Statistics/Hooks/usePlayer.test.tsx</title>
<g id="a_node9"><a xlink:href="src/components/Statistics/Hooks/usePlayer.test.tsx" xlink:title="usePlayer.test.tsx">
<path fill="#bbfeff" stroke="black" d="M781.5,-178C781.5,-178 698.5,-178 698.5,-178 695.5,-178 692.5,-175 692.5,-172 692.5,-172 692.5,-166 692.5,-166 692.5,-163 695.5,-160 698.5,-160 698.5,-160 781.5,-160 781.5,-160 784.5,-160 787.5,-163 787.5,-166 787.5,-166 787.5,-172 787.5,-172 787.5,-175 784.5,-178 781.5,-178"/>
<text text-anchor="start" x="700.5" y="-166.8" font-family="Helvetica,sans-Serif" font-size="9.00">usePlayer.test.tsx</text>
</a>
</g>
</g>
<!-- src/components/Statistics/Hooks/usePlayer.test.tsx&#45;&gt;src/api/players.tsx -->
<g id="edge6" class="edge">
<title>src/components/Statistics/Hooks/usePlayer.test.tsx&#45;&gt;src/api/players.tsx</title>
<path fill="none" stroke="#000000" stroke-width="2" stroke-opacity="0.200000" d="M787.66,-172.63C792.74,-174.79 797.37,-177.81 801,-182 822.32,-206.57 787.69,-305.84 811.5,-328 844.52,-358.73 879.73,-358.47 913,-328 927.97,-314.29 908,-252.59 921,-237 924.59,-232.7 929.35,-229.66 934.54,-227.51"/>
<polygon fill="#000000" fill-opacity="0.200000" stroke="#000000" stroke-width="2" stroke-opacity="0.200000" points="935.31,-229.47 940.3,-225.52 933.94,-225.5 935.31,-229.47"/>
</g>
<!-- src/components/Statistics/utils/utilsTest.ts -->
<g id="node10" class="node">
<title>src/components/Statistics/utils/utilsTest.ts</title>
<g id="a_node10"><a xlink:href="src/components/Statistics/utils/utilsTest.ts" xlink:title="utilsTest.ts">
<path fill="#ddfeff" stroke="black" d="M877.5,-268C877.5,-268 825.5,-268 825.5,-268 822.5,-268 819.5,-265 819.5,-262 819.5,-262 819.5,-256 819.5,-256 819.5,-253 822.5,-250 825.5,-250 825.5,-250 877.5,-250 877.5,-250 880.5,-250 883.5,-253 883.5,-256 883.5,-256 883.5,-262 883.5,-262 883.5,-265 880.5,-268 877.5,-268"/>
<text text-anchor="start" x="827.5" y="-256.8" font-family="Helvetica,sans-Serif" font-size="9.00">utilsTest.ts</text>
</a>
</g>
</g>
<!-- src/components/Statistics/Hooks/usePlayer.test.tsx&#45;&gt;src/components/Statistics/utils/utilsTest.ts -->
<g id="edge7" class="edge">
<title>src/components/Statistics/Hooks/usePlayer.test.tsx&#45;&gt;src/components/Statistics/utils/utilsTest.ts</title>
<path fill="none" stroke="#000000" stroke-width="2" stroke-opacity="0.200000" d="M787.58,-173.1C792.6,-175.19 797.24,-178.07 801,-182 820.31,-202.21 793.8,-222.37 811.5,-244 812.33,-245.01 813.23,-245.95 814.2,-246.83"/>
<polygon fill="#000000" fill-opacity="0.200000" stroke="#000000" stroke-width="2" stroke-opacity="0.200000" points="813.39,-248.85 819.47,-250.72 815.88,-245.47 813.39,-248.85"/>
</g>
<!-- src/components/Statistics/Hooks/usePlayer.tsx -->
<g id="node11" class="node">
<title>src/components/Statistics/Hooks/usePlayer.tsx</title>
<g id="a_node11"><a xlink:href="src/components/Statistics/Hooks/usePlayer.tsx" xlink:title="usePlayer.tsx">
<path fill="#bbfeff" stroke="black" d="M883,-178C883,-178 820,-178 820,-178 817,-178 814,-175 814,-172 814,-172 814,-166 814,-166 814,-163 817,-160 820,-160 820,-160 883,-160 883,-160 886,-160 889,-163 889,-166 889,-166 889,-172 889,-172 889,-175 886,-178 883,-178"/>
<text text-anchor="start" x="822" y="-166.8" font-family="Helvetica,sans-Serif" font-size="9.00">usePlayer.tsx</text>
</a>
</g>
</g>
<!-- src/components/Statistics/Hooks/usePlayer.test.tsx&#45;&gt;src/components/Statistics/Hooks/usePlayer.tsx -->
<g id="edge8" class="edge">
<title>src/components/Statistics/Hooks/usePlayer.test.tsx&#45;&gt;src/components/Statistics/Hooks/usePlayer.tsx</title>
<path fill="none" stroke="#000000" stroke-width="2" stroke-opacity="0.200000" d="M787.76,-169C794.29,-169 800.99,-169 807.46,-169"/>
<polygon fill="#000000" fill-opacity="0.200000" stroke="#000000" stroke-width="2" stroke-opacity="0.200000" points="807.83,-171.1 813.83,-169 807.83,-166.9 807.83,-171.1"/>
</g>
<!-- src/components/Statistics/Hooks/usePlayer.tsx&#45;&gt;src/api/players.tsx -->
<g id="edge9" class="edge">
<title>src/components/Statistics/Hooks/usePlayer.tsx&#45;&gt;src/api/players.tsx</title>
<path fill="none" stroke="#000000" stroke-width="2" stroke-opacity="0.200000" d="M872.5,-178.04C892.75,-187.19 924.15,-201.38 946.25,-211.36"/>
<polygon fill="#000000" fill-opacity="0.200000" stroke="#000000" stroke-width="2" stroke-opacity="0.200000" points="945.6,-213.38 951.93,-213.93 947.33,-209.55 945.6,-213.38"/>
</g>
<!-- src/components/Statistics/PlayerStatistics.test.tsx -->
<g id="node12" class="node">
<title>src/components/Statistics/PlayerStatistics.test.tsx</title>
<g id="a_node12"><a xlink:href="src/components/Statistics/PlayerStatistics.test.tsx" xlink:title="PlayerStatistics.test.tsx">
<path fill="#bbfeff" stroke="black" d="M795,-294C795,-294 685,-294 685,-294 682,-294 679,-291 679,-288 679,-288 679,-282 679,-282 679,-279 682,-276 685,-276 685,-276 795,-276 795,-276 798,-276 801,-279 801,-282 801,-282 801,-288 801,-288 801,-291 798,-294 795,-294"/>
<text text-anchor="start" x="687" y="-282.8" font-family="Helvetica,sans-Serif" font-size="9.00">PlayerStatistics.test.tsx</text>
</a>
</g>
</g>
<!-- src/components/Statistics/PlayerStatistics.test.tsx&#45;&gt;src/components/Statistics/utils/utilsTest.ts -->
<g id="edge11" class="edge">
<title>src/components/Statistics/PlayerStatistics.test.tsx&#45;&gt;src/components/Statistics/utils/utilsTest.ts</title>
<path fill="none" stroke="#000000" stroke-width="2" stroke-opacity="0.200000" d="M778.99,-275.98C790.14,-273.33 802.32,-270.44 813.42,-267.8"/>
<polygon fill="#000000" fill-opacity="0.200000" stroke="#000000" stroke-width="2" stroke-opacity="0.200000" points="814.11,-269.8 819.46,-266.37 813.14,-265.71 814.11,-269.8"/>
</g>
<!-- src/components/Statistics/Tables.tsx -->
<g id="node13" class="node">
<title>src/components/Statistics/Tables.tsx</title>
<g id="a_node13"><a xlink:href="src/components/Statistics/Tables.tsx" xlink:title="Tables.tsx">
<path fill="#bbfeff" stroke="black" d="M875.5,-320C875.5,-320 827.5,-320 827.5,-320 824.5,-320 821.5,-317 821.5,-314 821.5,-314 821.5,-308 821.5,-308 821.5,-305 824.5,-302 827.5,-302 827.5,-302 875.5,-302 875.5,-302 878.5,-302 881.5,-305 881.5,-308 881.5,-308 881.5,-314 881.5,-314 881.5,-317 878.5,-320 875.5,-320"/>
<text text-anchor="start" x="829.5" y="-308.8" font-family="Helvetica,sans-Serif" font-size="9.00">Tables.tsx</text>
</a>
</g>
</g>
<!-- src/components/Statistics/PlayerStatistics.test.tsx&#45;&gt;src/components/Statistics/Tables.tsx -->
<g id="edge10" class="edge">
<title>src/components/Statistics/PlayerStatistics.test.tsx&#45;&gt;src/components/Statistics/Tables.tsx</title>
<path fill="none" stroke="#000000" stroke-width="2" stroke-opacity="0.200000" d="M778.99,-294.02C790.77,-296.82 803.7,-299.89 815.29,-302.64"/>
<polygon fill="#000000" fill-opacity="0.200000" stroke="#000000" stroke-width="2" stroke-opacity="0.200000" points="814.89,-304.7 821.21,-304.05 815.86,-300.62 814.89,-304.7"/>
</g>
<!-- src/components/Statistics/PlayersStatistics.tsx -->
<g id="node14" class="node">
<title>src/components/Statistics/PlayersStatistics.tsx</title>
<g id="a_node14"><a xlink:href="src/components/Statistics/PlayersStatistics.tsx" xlink:title="PlayersStatistics.tsx">
<path fill="#bbfeff" stroke="black" d="M787,-230C787,-230 693,-230 693,-230 690,-230 687,-227 687,-224 687,-224 687,-218 687,-218 687,-215 690,-212 693,-212 693,-212 787,-212 787,-212 790,-212 793,-215 793,-218 793,-218 793,-224 793,-224 793,-227 790,-230 787,-230"/>
<text text-anchor="start" x="695" y="-218.8" font-family="Helvetica,sans-Serif" font-size="9.00">PlayersStatistics.tsx</text>
</a>
</g>
</g>
<!-- src/components/Statistics/PlayersStatistics.tsx&#45;&gt;src/components/Statistics/Hooks/usePlayer.tsx -->
<g id="edge12" class="edge">
<title>src/components/Statistics/PlayersStatistics.tsx&#45;&gt;src/components/Statistics/Hooks/usePlayer.tsx</title>
<path fill="none" stroke="#000000" stroke-width="2" stroke-opacity="0.200000" d="M788.49,-211.93C792.8,-210.51 797.04,-208.88 801,-207 814.18,-200.77 827.18,-190.59 836.54,-182.33"/>
<polygon fill="#000000" fill-opacity="0.200000" stroke="#000000" stroke-width="2" stroke-opacity="0.200000" points="838.05,-183.8 841.09,-178.22 835.23,-180.69 838.05,-183.8"/>
</g>
<!-- src/components/Statistics/PlayersStatistics.tsx&#45;&gt;src/components/Statistics/Tables.tsx -->
<g id="edge13" class="edge">
<title>src/components/Statistics/PlayersStatistics.tsx&#45;&gt;src/components/Statistics/Tables.tsx</title>
<path fill="none" stroke="#000000" stroke-width="2" stroke-opacity="0.200000" d="M756.19,-230.16C769.58,-238.92 788.82,-253.25 801,-270 808.57,-280.42 802.28,-288.02 811.5,-297 812.8,-298.27 814.23,-299.43 815.75,-300.48"/>
<polygon fill="#000000" fill-opacity="0.200000" stroke="#000000" stroke-width="2" stroke-opacity="0.200000" points="814.93,-302.44 821.17,-303.67 817.06,-298.82 814.93,-302.44"/>
</g>
<!-- src/components/Statistics/index.ts -->
<g id="node15" class="node">
<title>src/components/Statistics/index.ts</title>
<g id="a_node15"><a xlink:href="src/components/Statistics/index.ts" xlink:title="index.ts">
<path fill="#ddfeff" stroke="black" d="M660,-200C660,-200 618,-200 618,-200 615,-200 612,-197 612,-194 612,-194 612,-188 612,-188 612,-185 615,-182 618,-182 618,-182 660,-182 660,-182 663,-182 666,-185 666,-188 666,-188 666,-194 666,-194 666,-197 663,-200 660,-200"/>
<text text-anchor="start" x="620.5" y="-188.8" font-family="Helvetica,sans-Serif" font-size="9.00">index.ts</text>
</a>
</g>
</g>
<!-- src/components/Statistics/index.ts&#45;&gt;src/components/Statistics/PlayersStatistics.tsx -->
<g id="edge14" class="edge">
<title>src/components/Statistics/index.ts&#45;&gt;src/components/Statistics/PlayersStatistics.tsx</title>
<path fill="none" stroke="#000000" stroke-width="2" stroke-opacity="0.200000" d="M660.42,-200.1C666.34,-202.54 672.87,-205.04 679,-207 682.77,-208.2 686.69,-209.35 690.66,-210.43"/>
<polygon fill="#000000" fill-opacity="0.200000" stroke="#000000" stroke-width="2" stroke-opacity="0.200000" points="690.14,-212.47 696.48,-211.97 691.22,-208.41 690.14,-212.47"/>
</g>
<!-- src/components/Statistics/utils/utils.ts -->
<g id="node16" class="node">
<title>src/components/Statistics/utils/utils.ts</title>
<g id="a_node16"><a xlink:href="src/components/Statistics/utils/utils.ts" xlink:title="utils.ts">
<path fill="#ccffcc" stroke="black" d="M872.5,-238C872.5,-238 830.5,-238 830.5,-238 827.5,-238 824.5,-235 824.5,-232 824.5,-232 824.5,-226 824.5,-226 824.5,-223 827.5,-220 830.5,-220 830.5,-220 872.5,-220 872.5,-220 875.5,-220 878.5,-223 878.5,-226 878.5,-226 878.5,-232 878.5,-232 878.5,-235 875.5,-238 872.5,-238"/>
<text text-anchor="start" x="836" y="-226.8" font-family="Helvetica,sans-Serif" font-size="9.00">utils.ts</text>
</a>
</g>
</g>
<!-- src/index.css -->
<g id="node18" class="node">
<title>src/index.css</title>
<g id="a_node18"><a xlink:href="src/index.css" xlink:title="index.css">
<path fill="#ffffcc" stroke="black" d="M154,-140C154,-140 107,-140 107,-140 104,-140 101,-137 101,-134 101,-134 101,-128 101,-128 101,-125 104,-122 107,-122 107,-122 154,-122 154,-122 157,-122 160,-125 160,-128 160,-128 160,-134 160,-134 160,-137 157,-140 154,-140"/>
<text text-anchor="start" x="109" y="-128.8" font-family="Helvetica,sans-Serif" font-size="9.00">index.css</text>
</a>
</g>
</g>
<!-- src/main.tsx -->
<g id="node19" class="node">
<title>src/main.tsx</title>
<g id="a_node19"><a xlink:href="src/main.tsx" xlink:title="main.tsx">
<path fill="#bbfeff" stroke="black" d="M74,-134C74,-134 30,-134 30,-134 27,-134 24,-131 24,-128 24,-128 24,-122 24,-122 24,-119 27,-116 30,-116 30,-116 74,-116 74,-116 77,-116 80,-119 80,-122 80,-122 80,-128 80,-128 80,-131 77,-134 74,-134"/>
<text text-anchor="start" x="32" y="-122.8" font-family="Helvetica,sans-Serif" font-size="9.00">main.tsx</text>
</a>
</g>
</g>
<!-- src/main.tsx&#45;&gt;src/App.tsx -->
<g id="edge16" class="edge">
<title>src/main.tsx&#45;&gt;src/App.tsx</title>
<path fill="none" stroke="#000000" stroke-width="2" stroke-opacity="0.200000" d="M80.19,-116.47C85.86,-114.69 91.88,-112.8 97.7,-110.98"/>
<polygon fill="#000000" fill-opacity="0.200000" stroke="#000000" stroke-width="2" stroke-opacity="0.200000" points="98.33,-112.98 103.43,-109.18 97.07,-108.97 98.33,-112.98"/>
</g>
<!-- src/main.tsx&#45;&gt;src/index.css -->
<g id="edge17" class="edge">
<title>src/main.tsx&#45;&gt;src/index.css</title>
<path fill="none" stroke="#000000" stroke-width="2" stroke-opacity="0.200000" d="M80.19,-127.13C84.9,-127.5 89.85,-127.89 94.73,-128.27"/>
<polygon fill="#000000" fill-opacity="0.200000" stroke="#000000" stroke-width="2" stroke-opacity="0.200000" points="94.7,-130.38 100.85,-128.75 95.03,-126.19 94.7,-130.38"/>
</g>
<!-- src/pages/Home/Home.tsx -->
<g id="node20" class="node">
<title>src/pages/Home/Home.tsx</title>
<g id="a_node20"><a xlink:href="src/pages/Home/Home.tsx" xlink:title="Home.tsx">
<path fill="#bbfeff" stroke="black" d="M558.5,-217C558.5,-217 511.5,-217 511.5,-217 508.5,-217 505.5,-214 505.5,-211 505.5,-211 505.5,-205 505.5,-205 505.5,-202 508.5,-199 511.5,-199 511.5,-199 558.5,-199 558.5,-199 561.5,-199 564.5,-202 564.5,-205 564.5,-205 564.5,-211 564.5,-211 564.5,-214 561.5,-217 558.5,-217"/>
<text text-anchor="start" x="513.5" y="-205.8" font-family="Helvetica,sans-Serif" font-size="9.00">Home.tsx</text>
</a>
</g>
</g>
<!-- src/pages/Home/index.ts -->
<g id="node21" class="node">
<title>src/pages/Home/index.ts</title>
<g id="a_node21"><a xlink:href="src/pages/Home/index.ts" xlink:title="index.ts">
<path fill="#ddfeff" stroke="black" d="M479,-217C479,-217 437,-217 437,-217 434,-217 431,-214 431,-211 431,-211 431,-205 431,-205 431,-202 434,-199 437,-199 437,-199 479,-199 479,-199 482,-199 485,-202 485,-205 485,-205 485,-211 485,-211 485,-214 482,-217 479,-217"/>
<text text-anchor="start" x="439.5" y="-205.8" font-family="Helvetica,sans-Serif" font-size="9.00">index.ts</text>
</a>
</g>
</g>
<!-- src/pages/Home/index.ts&#45;&gt;src/pages/Home/Home.tsx -->
<g id="edge18" class="edge">
<title>src/pages/Home/index.ts&#45;&gt;src/pages/Home/Home.tsx</title>
<path fill="none" stroke="#000000" stroke-width="2" stroke-opacity="0.200000" d="M485.23,-208C489.7,-208 494.41,-208 499.07,-208"/>
<polygon fill="#000000" fill-opacity="0.200000" stroke="#000000" stroke-width="2" stroke-opacity="0.200000" points="499.35,-210.1 505.35,-208 499.35,-205.9 499.35,-210.1"/>
</g>
<!-- src/pages/Statistics/Statistics.tsx -->
<g id="node22" class="node">
<title>src/pages/Statistics/Statistics.tsx</title>
<g id="a_node22"><a xlink:href="src/pages/Statistics/Statistics.tsx" xlink:title="Statistics.tsx">
<path fill="#bbfeff" stroke="black" d="M566,-157C566,-157 504,-157 504,-157 501,-157 498,-154 498,-151 498,-151 498,-145 498,-145 498,-142 501,-139 504,-139 504,-139 566,-139 566,-139 569,-139 572,-142 572,-145 572,-145 572,-151 572,-151 572,-154 569,-157 566,-157"/>
<text text-anchor="start" x="506" y="-145.8" font-family="Helvetica,sans-Serif" font-size="9.00">Statistics.tsx</text>
</a>
</g>
</g>
<!-- src/pages/Statistics/Statistics.tsx&#45;&gt;src/components/Statistics/index.ts -->
<g id="edge19" class="edge">
<title>src/pages/Statistics/Statistics.tsx&#45;&gt;src/components/Statistics/index.ts</title>
<path fill="none" stroke="#000000" stroke-width="2" stroke-opacity="0.200000" d="M557.63,-157.12C573.05,-163.62 593.9,-172.41 610.49,-179.4"/>
<polygon fill="#000000" fill-opacity="0.200000" stroke="#000000" stroke-width="2" stroke-opacity="0.200000" points="610.06,-181.5 616.4,-181.89 611.69,-177.63 610.06,-181.5"/>
</g>
<!-- src/pages/Statistics/index.ts -->
<g id="node23" class="node">
<title>src/pages/Statistics/index.ts</title>
<g id="a_node23"><a xlink:href="src/pages/Statistics/index.ts" xlink:title="index.ts">
<path fill="#ddfeff" stroke="black" d="M479,-157C479,-157 437,-157 437,-157 434,-157 431,-154 431,-151 431,-151 431,-145 431,-145 431,-142 434,-139 437,-139 437,-139 479,-139 479,-139 482,-139 485,-142 485,-145 485,-145 485,-151 485,-151 485,-154 482,-157 479,-157"/>
<text text-anchor="start" x="439.5" y="-145.8" font-family="Helvetica,sans-Serif" font-size="9.00">index.ts</text>
</a>
</g>
</g>
<!-- src/pages/Statistics/index.ts&#45;&gt;src/pages/Statistics/Statistics.tsx -->
<g id="edge20" class="edge">
<title>src/pages/Statistics/index.ts&#45;&gt;src/pages/Statistics/Statistics.tsx</title>
<path fill="none" stroke="#000000" stroke-width="2" stroke-opacity="0.200000" d="M485.23,-148C487.26,-148 489.34,-148 491.43,-148"/>
<polygon fill="#000000" fill-opacity="0.200000" stroke="#000000" stroke-width="2" stroke-opacity="0.200000" points="491.76,-150.1 497.76,-148 491.76,-145.9 491.76,-150.1"/>
</g>
<!-- src/routes/routes.tsx -->
<g id="node25" class="node">
<title>src/routes/routes.tsx</title>
<g id="a_node25"><a xlink:href="src/routes/routes.tsx" xlink:title="routes.tsx">
<path fill="#bbfeff" stroke="black" d="M393,-157C393,-157 343,-157 343,-157 340,-157 337,-154 337,-151 337,-151 337,-145 337,-145 337,-142 340,-139 343,-139 343,-139 393,-139 393,-139 396,-139 399,-142 399,-145 399,-145 399,-151 399,-151 399,-154 396,-157 393,-157"/>
<text text-anchor="start" x="345" y="-145.8" font-family="Helvetica,sans-Serif" font-size="9.00">routes.tsx</text>
</a>
</g>
</g>
<!-- src/routes/Navigation.tsx&#45;&gt;src/routes/routes.tsx -->
<g id="edge21" class="edge">
<title>src/routes/Navigation.tsx&#45;&gt;src/routes/routes.tsx</title>
<path fill="none" stroke="#000000" stroke-width="2" stroke-opacity="0.200000" d="M324.3,-148C326.36,-148 328.43,-148 330.47,-148"/>
<polygon fill="#000000" fill-opacity="0.200000" stroke="#000000" stroke-width="2" stroke-opacity="0.200000" points="330.55,-150.1 336.55,-148 330.55,-145.9 330.55,-150.1"/>
</g>
<!-- src/routes/routes.tsx&#45;&gt;src/pages/Home/index.ts -->
<g id="edge23" class="edge">
<title>src/routes/routes.tsx&#45;&gt;src/pages/Home/index.ts</title>
<path fill="none" stroke="#000000" stroke-width="2" stroke-opacity="0.200000" d="M378.76,-157.09C387.77,-165.21 401.71,-177.17 415,-186 420.35,-189.55 426.34,-192.98 432.08,-196.04"/>
<polygon fill="#000000" fill-opacity="0.200000" stroke="#000000" stroke-width="2" stroke-opacity="0.200000" points="431.41,-198.06 437.7,-198.95 433.34,-194.33 431.41,-198.06"/>
</g>
<!-- src/routes/routes.tsx&#45;&gt;src/pages/Statistics/index.ts -->
<g id="edge24" class="edge">
<title>src/routes/routes.tsx&#45;&gt;src/pages/Statistics/index.ts</title>
<path fill="none" stroke="#000000" stroke-width="2" stroke-opacity="0.200000" d="M399.28,-148C407.45,-148 416.31,-148 424.58,-148"/>
<polygon fill="#000000" fill-opacity="0.200000" stroke="#000000" stroke-width="2" stroke-opacity="0.200000" points="424.77,-150.1 430.77,-148 424.77,-145.9 424.77,-150.1"/>
</g>
<!-- src/types.ts -->
<g id="node26" class="node">
<title>src/types.ts</title>
<g id="a_node26"><a xlink:href="src/types.ts" xlink:title="types.ts">
<path fill="#ccffcc" stroke="black" d="M73,-93C73,-93 31,-93 31,-93 28,-93 25,-90 25,-87 25,-87 25,-81 25,-81 25,-78 28,-75 31,-75 31,-75 73,-75 73,-75 76,-75 79,-78 79,-81 79,-81 79,-87 79,-87 79,-90 76,-93 73,-93"/>
<text text-anchor="start" x="33.5" y="-81.8" font-family="Helvetica,sans-Serif" font-size="9.00">types.ts</text>
</a>
</g>
</g>
<!-- src/vite&#45;env.d.ts -->
<g id="node27" class="node">
<title>src/vite&#45;env.d.ts</title>
<g id="a_node27"><a xlink:href="src/vite-env.d.ts" xlink:title="vite&#45;env.d.ts">
<path fill="#ccffcc" stroke="black" d="M82,-40C82,-40 22,-40 22,-40 19,-40 16,-37 16,-34 16,-34 16,-28 16,-28 16,-25 19,-22 22,-22 22,-22 82,-22 82,-22 85,-22 88,-25 88,-28 88,-28 88,-34 88,-34 88,-37 85,-40 82,-40"/>
<text text-anchor="start" x="24" y="-28.8" font-family="Helvetica,sans-Serif" font-size="9.00">vite&#45;env.d.ts</text>
</a>
</g>
</g>
</g>
</svg>
