<?xml version="1.0" encoding="UTF-8" standalone="no"?>
<!DOCTYPE svg PUBLIC "-//W3C//DTD SVG 1.1//EN"
 "http://www.w3.org/Graphics/SVG/1.1/DTD/svg11.dtd">
<!-- Generated by graphviz version 2.43.0 (0)
 -->
<!-- Title: dependency&#45;cruiser output Pages: 1 -->
<svg width="1005pt" height="324pt"
 viewBox="0.00 0.00 1004.50 324.00" xmlns="http://www.w3.org/2000/svg" xmlns:xlink="http://www.w3.org/1999/xlink">
<g id="graph0" class="graph" transform="scale(1 1) rotate(0) translate(4 320)">
<title>dependency&#45;cruiser output</title>
<polygon fill="white" stroke="transparent" points="-4,4 -4,-320 1000.5,-320 1000.5,4 -4,4"/>
<g id="clust1" class="cluster">
<title>cluster_src</title>
<path fill="#ffffff" stroke="black" stroke-width="2" d="M20,-8C20,-8 976.5,-8 976.5,-8 982.5,-8 988.5,-14 988.5,-20 988.5,-20 988.5,-296 988.5,-296 988.5,-302 982.5,-308 976.5,-308 976.5,-308 20,-308 20,-308 14,-308 8,-302 8,-296 8,-296 8,-20 8,-20 8,-14 14,-8 20,-8"/>
<text text-anchor="middle" x="498.25" y="-296.8" font-family="Helvetica,sans-Serif" font-weight="bold" font-size="9.00">src</text>
</g>
<g id="clust2" class="cluster">
<title>cluster_src/api</title>
<path fill="#ffffff" stroke="black" stroke-width="2" d="M813,-230C813,-230 870,-230 870,-230 876,-230 882,-236 882,-242 882,-242 882,-270 882,-270 882,-276 876,-282 870,-282 870,-282 813,-282 813,-282 807,-282 801,-276 801,-270 801,-270 801,-242 801,-242 801,-236 807,-230 813,-230"/>
<text text-anchor="middle" x="841.5" y="-270.8" font-family="Helvetica,sans-Serif" font-weight="bold" font-size="9.00">api</text>
</g>
<g id="clust3" class="cluster">
<title>cluster_src/components</title>
<path fill="#ffffff" stroke="black" stroke-width="2" d="M608,-16C608,-16 872.5,-16 872.5,-16 878.5,-16 884.5,-22 884.5,-28 884.5,-28 884.5,-210 884.5,-210 884.5,-216 878.5,-222 872.5,-222 872.5,-222 608,-222 608,-222 602,-222 596,-216 596,-210 596,-210 596,-28 596,-28 596,-22 602,-16 608,-16"/>
<text text-anchor="middle" x="740.25" y="-210.8" font-family="Helvetica,sans-Serif" font-weight="bold" font-size="9.00">components</text>
</g>
<g id="clust4" class="cluster">
<title>cluster_src/components/Footbar</title>
<path fill="#ffffff" stroke="black" stroke-width="2" d="M616,-24C616,-24 864.5,-24 864.5,-24 870.5,-24 876.5,-30 876.5,-36 876.5,-36 876.5,-64 876.5,-64 876.5,-70 870.5,-76 864.5,-76 864.5,-76 616,-76 616,-76 610,-76 604,-70 604,-64 604,-64 604,-36 604,-36 604,-30 610,-24 616,-24"/>
<text text-anchor="middle" x="740.25" y="-64.8" font-family="Helvetica,sans-Serif" font-weight="bold" font-size="9.00">Footbar</text>
</g>
<g id="clust5" class="cluster">
<title>cluster_src/components/Statistics</title>
<path fill="#ffffff" stroke="black" stroke-width="2" d="M616,-144C616,-144 781,-144 781,-144 787,-144 793,-150 793,-156 793,-156 793,-184 793,-184 793,-190 787,-196 781,-196 781,-196 616,-196 616,-196 610,-196 604,-190 604,-184 604,-184 604,-156 604,-156 604,-150 610,-144 616,-144"/>
<text text-anchor="middle" x="698.5" y="-184.8" font-family="Helvetica,sans-Serif" font-weight="bold" font-size="9.00">Statistics</text>
</g>
<g id="clust6" class="cluster">
<title>cluster_src/components/Topbar</title>
<path fill="#ffffff" stroke="black" stroke-width="2" d="M616,-84C616,-84 759,-84 759,-84 765,-84 771,-90 771,-96 771,-96 771,-124 771,-124 771,-130 765,-136 759,-136 759,-136 616,-136 616,-136 610,-136 604,-130 604,-124 604,-124 604,-96 604,-96 604,-90 610,-84 616,-84"/>
<text text-anchor="middle" x="687.5" y="-124.8" font-family="Helvetica,sans-Serif" font-weight="bold" font-size="9.00">Topbar</text>
</g>
<g id="clust7" class="cluster">
<title>cluster_src/pages</title>
<path fill="#ffffff" stroke="black" stroke-width="2" d="M427,-123C427,-123 576,-123 576,-123 582,-123 588,-129 588,-135 588,-135 588,-257 588,-257 588,-263 582,-269 576,-269 576,-269 427,-269 427,-269 421,-269 415,-263 415,-257 415,-257 415,-135 415,-135 415,-129 421,-123 427,-123"/>
<text text-anchor="middle" x="501.5" y="-257.8" font-family="Helvetica,sans-Serif" font-weight="bold" font-size="9.00">pages</text>
</g>
<g id="clust8" class="cluster">
<title>cluster_src/pages/Home</title>
<path fill="#ffffff" stroke="black" stroke-width="2" d="M435,-191C435,-191 560.5,-191 560.5,-191 566.5,-191 572.5,-197 572.5,-203 572.5,-203 572.5,-231 572.5,-231 572.5,-237 566.5,-243 560.5,-243 560.5,-243 435,-243 435,-243 429,-243 423,-237 423,-231 423,-231 423,-203 423,-203 423,-197 429,-191 435,-191"/>
<text text-anchor="middle" x="497.75" y="-231.8" font-family="Helvetica,sans-Serif" font-weight="bold" font-size="9.00">Home</text>
</g>
<g id="clust9" class="cluster">
<title>cluster_src/pages/Statistics</title>
<path fill="#ffffff" stroke="black" stroke-width="2" d="M435,-131C435,-131 568,-131 568,-131 574,-131 580,-137 580,-143 580,-143 580,-171 580,-171 580,-177 574,-183 568,-183 568,-183 435,-183 435,-183 429,-183 423,-177 423,-171 423,-171 423,-143 423,-143 423,-137 429,-131 435,-131"/>
<text text-anchor="middle" x="501.5" y="-171.8" font-family="Helvetica,sans-Serif" font-weight="bold" font-size="9.00">Statistics</text>
</g>
<g id="clust10" class="cluster">
<title>cluster_src/routes</title>
<path fill="#ffffff" stroke="black" stroke-width="2" d="M180,-131C180,-131 395,-131 395,-131 401,-131 407,-137 407,-143 407,-143 407,-171 407,-171 407,-177 401,-183 395,-183 395,-183 180,-183 180,-183 174,-183 168,-177 168,-171 168,-171 168,-143 168,-143 168,-137 174,-131 180,-131"/>
<text text-anchor="middle" x="287.5" y="-171.8" font-family="Helvetica,sans-Serif" font-weight="bold" font-size="9.00">routes</text>
</g>
<g id="clust11" class="cluster">
<title>cluster_src/utils</title>
<path fill="#ffffff" stroke="black" stroke-width="2" d="M904.5,-230C904.5,-230 968.5,-230 968.5,-230 974.5,-230 980.5,-236 980.5,-242 980.5,-242 980.5,-270 980.5,-270 980.5,-276 974.5,-282 968.5,-282 968.5,-282 904.5,-282 904.5,-282 898.5,-282 892.5,-276 892.5,-270 892.5,-270 892.5,-242 892.5,-242 892.5,-236 898.5,-230 904.5,-230"/>
<text text-anchor="middle" x="936.5" y="-270.8" font-family="Helvetica,sans-Serif" font-weight="bold" font-size="9.00">utils</text>
</g>
<!-- src/App.tsx -->
<g id="node1" class="node">
<title>src/App.tsx</title>
<g id="a_node1"><a xlink:href="src/App.tsx" xlink:title="App.tsx">
<path fill="#bbfeff" stroke="black" d="M151.5,-110C151.5,-110 109.5,-110 109.5,-110 106.5,-110 103.5,-107 103.5,-104 103.5,-104 103.5,-98 103.5,-98 103.5,-95 106.5,-92 109.5,-92 109.5,-92 151.5,-92 151.5,-92 154.5,-92 157.5,-95 157.5,-98 157.5,-98 157.5,-104 157.5,-104 157.5,-107 154.5,-110 151.5,-110"/>
<text text-anchor="start" x="113" y="-98.8" font-family="Helvetica,sans-Serif" font-size="9.00">App.tsx</text>
</a>
</g>
</g>
<!-- src/components/Footbar/index.ts -->
<g id="node2" class="node">
<title>src/components/Footbar/index.ts</title>
<g id="a_node2"><a xlink:href="src/components/Footbar/index.ts" xlink:title="index.ts">
<path fill="#ddfeff" stroke="black" d="M660,-50C660,-50 618,-50 618,-50 615,-50 612,-47 612,-44 612,-44 612,-38 612,-38 612,-35 615,-32 618,-32 618,-32 660,-32 660,-32 663,-32 666,-35 666,-38 666,-38 666,-44 666,-44 666,-47 663,-50 660,-50"/>
<text text-anchor="start" x="620.5" y="-38.8" font-family="Helvetica,sans-Serif" font-size="9.00">index.ts</text>
</a>
</g>
</g>
<!-- src/App.tsx&#45;&gt;src/components/Footbar/index.ts -->
<g id="edge1" class="edge">
<title>src/App.tsx&#45;&gt;src/components/Footbar/index.ts</title>
<path fill="none" stroke="#000000" stroke-width="2" stroke-opacity="0.200000" d="M153.85,-91.95C182.96,-80.99 235.67,-64 282.5,-64 282.5,-64 282.5,-64 459,-64 510.68,-64 570.08,-54.45 605.8,-47.66"/>
<polygon fill="#000000" fill-opacity="0.200000" stroke="#000000" stroke-width="2" stroke-opacity="0.200000" points="606.26,-49.71 611.75,-46.51 605.46,-45.58 606.26,-49.71"/>
</g>
<!-- src/components/Topbar/index.ts -->
<g id="node3" class="node">
<title>src/components/Topbar/index.ts</title>
<g id="a_node3"><a xlink:href="src/components/Topbar/index.ts" xlink:title="index.ts">
<path fill="#ddfeff" stroke="black" d="M660,-110C660,-110 618,-110 618,-110 615,-110 612,-107 612,-104 612,-104 612,-98 612,-98 612,-95 615,-92 618,-92 618,-92 660,-92 660,-92 663,-92 666,-95 666,-98 666,-98 666,-104 666,-104 666,-107 663,-110 660,-110"/>
<text text-anchor="start" x="620.5" y="-98.8" font-family="Helvetica,sans-Serif" font-size="9.00">index.ts</text>
</a>
</g>
</g>
<!-- src/App.tsx&#45;&gt;src/components/Topbar/index.ts -->
<g id="edge2" class="edge">
<title>src/App.tsx&#45;&gt;src/components/Topbar/index.ts</title>
<path fill="none" stroke="#000000" stroke-width="2" stroke-opacity="0.200000" d="M157.69,-101C187.8,-101 238.72,-101 282.5,-101 282.5,-101 282.5,-101 459,-101 510.2,-101 569.63,-101 605.5,-101"/>
<polygon fill="#000000" fill-opacity="0.200000" stroke="#000000" stroke-width="2" stroke-opacity="0.200000" points="605.91,-103.1 611.91,-101 605.91,-98.9 605.91,-103.1"/>
</g>
<!-- src/routes/index.ts -->
<g id="node4" class="node">
<title>src/routes/index.ts</title>
<g id="a_node4"><a xlink:href="src/routes/index.ts" xlink:title="index.ts">
<path fill="#ddfeff" stroke="black" d="M224,-157C224,-157 182,-157 182,-157 179,-157 176,-154 176,-151 176,-151 176,-145 176,-145 176,-142 179,-139 182,-139 182,-139 224,-139 224,-139 227,-139 230,-142 230,-145 230,-145 230,-151 230,-151 230,-154 227,-157 224,-157"/>
<text text-anchor="start" x="184.5" y="-145.8" font-family="Helvetica,sans-Serif" font-size="9.00">index.ts</text>
</a>
</g>
</g>
<!-- src/App.tsx&#45;&gt;src/routes/index.ts -->
<g id="edge3" class="edge">
<title>src/App.tsx&#45;&gt;src/routes/index.ts</title>
<path fill="none" stroke="#000000" stroke-width="2" stroke-opacity="0.200000" d="M152.92,-110.12C155.51,-111.82 157.96,-113.78 160,-116 166.19,-122.75 161.41,-128.63 168,-135 168.85,-135.82 169.76,-136.6 170.71,-137.32"/>
<polygon fill="#000000" fill-opacity="0.200000" stroke="#000000" stroke-width="2" stroke-opacity="0.200000" points="169.61,-139.11 175.8,-140.56 171.87,-135.56 169.61,-139.11"/>
</g>
<!-- src/components/Footbar/Footer.tsx -->
<g id="node7" class="node">
<title>src/components/Footbar/Footer.tsx</title>
<g id="a_node7"><a xlink:href="src/components/Footbar/Footer.tsx" xlink:title="Footer.tsx">
<path fill="#bbfeff" stroke="black" d="M756,-50C756,-50 708,-50 708,-50 705,-50 702,-47 702,-44 702,-44 702,-38 702,-38 702,-35 705,-32 708,-32 708,-32 756,-32 756,-32 759,-32 762,-35 762,-38 762,-38 762,-44 762,-44 762,-47 759,-50 756,-50"/>
<text text-anchor="start" x="710" y="-38.8" font-family="Helvetica,sans-Serif" font-size="9.00">Footer.tsx</text>
</a>
</g>
</g>
<!-- src/components/Footbar/index.ts&#45;&gt;src/components/Footbar/Footer.tsx -->
<g id="edge6" class="edge">
<title>src/components/Footbar/index.ts&#45;&gt;src/components/Footbar/Footer.tsx</title>
<path fill="none" stroke="#000000" stroke-width="2" stroke-opacity="0.200000" d="M666.32,-41C675.54,-41 686.04,-41 695.86,-41"/>
<polygon fill="#000000" fill-opacity="0.200000" stroke="#000000" stroke-width="2" stroke-opacity="0.200000" points="695.87,-43.1 701.87,-41 695.87,-38.9 695.87,-43.1"/>
</g>
<!-- src/components/Topbar/Topbar.tsx -->
<g id="node11" class="node">
<title>src/components/Topbar/Topbar.tsx</title>
<g id="a_node11"><a xlink:href="src/components/Topbar/Topbar.tsx" xlink:title="Topbar.tsx">
<path fill="#bbfeff" stroke="black" d="M757,-110C757,-110 707,-110 707,-110 704,-110 701,-107 701,-104 701,-104 701,-98 701,-98 701,-95 704,-92 707,-92 707,-92 757,-92 757,-92 760,-92 763,-95 763,-98 763,-98 763,-104 763,-104 763,-107 760,-110 757,-110"/>
<text text-anchor="start" x="709" y="-98.8" font-family="Helvetica,sans-Serif" font-size="9.00">Topbar.tsx</text>
</a>
</g>
</g>
<!-- src/components/Topbar/index.ts&#45;&gt;src/components/Topbar/Topbar.tsx -->
<g id="edge9" class="edge">
<title>src/components/Topbar/index.ts&#45;&gt;src/components/Topbar/Topbar.tsx</title>
<path fill="none" stroke="#000000" stroke-width="2" stroke-opacity="0.200000" d="M666.32,-101C675.19,-101 685.25,-101 694.75,-101"/>
<polygon fill="#000000" fill-opacity="0.200000" stroke="#000000" stroke-width="2" stroke-opacity="0.200000" points="694.89,-103.1 700.89,-101 694.89,-98.9 694.89,-103.1"/>
</g>
<!-- src/routes/Navigation.tsx -->
<g id="node18" class="node">
<title>src/routes/Navigation.tsx</title>
<g id="a_node18"><a xlink:href="src/routes/Navigation.tsx" xlink:title="Navigation.tsx">
<path fill="#bbfeff" stroke="black" d="M318,-157C318,-157 249,-157 249,-157 246,-157 243,-154 243,-151 243,-151 243,-145 243,-145 243,-142 246,-139 249,-139 249,-139 318,-139 318,-139 321,-139 324,-142 324,-145 324,-145 324,-151 324,-151 324,-154 321,-157 318,-157"/>
<text text-anchor="start" x="251" y="-145.8" font-family="Helvetica,sans-Serif" font-size="9.00">Navigation.tsx</text>
</a>
</g>
</g>
<!-- src/routes/index.ts&#45;&gt;src/routes/Navigation.tsx -->
<g id="edge16" class="edge">
<title>src/routes/index.ts&#45;&gt;src/routes/Navigation.tsx</title>
<path fill="none" stroke="#000000" stroke-width="2" stroke-opacity="0.200000" d="M230.14,-148C232.32,-148 234.56,-148 236.83,-148"/>
<polygon fill="#000000" fill-opacity="0.200000" stroke="#000000" stroke-width="2" stroke-opacity="0.200000" points="236.89,-150.1 242.89,-148 236.89,-145.9 236.89,-150.1"/>
</g>
<!-- src/api/players.tsx -->
<g id="node5" class="node">
<title>src/api/players.tsx</title>
<g id="a_node5"><a xlink:href="src/api/players.tsx" xlink:title="players.tsx">
<path fill="#bbfeff" stroke="black" d="M868,-256C868,-256 815,-256 815,-256 812,-256 809,-253 809,-250 809,-250 809,-244 809,-244 809,-241 812,-238 815,-238 815,-238 868,-238 868,-238 871,-238 874,-241 874,-244 874,-244 874,-250 874,-250 874,-253 871,-256 868,-256"/>
<text text-anchor="start" x="817" y="-244.8" font-family="Helvetica,sans-Serif" font-size="9.00">players.tsx</text>
</a>
</g>
</g>
<!-- src/utils/constants.ts -->
<g id="node6" class="node">
<title>src/utils/constants.ts</title>
<g id="a_node6"><a xlink:href="src/utils/constants.ts" xlink:title="constants.ts">
<path fill="#ddfeff" stroke="black" d="M966.5,-256C966.5,-256 906.5,-256 906.5,-256 903.5,-256 900.5,-253 900.5,-250 900.5,-250 900.5,-244 900.5,-244 900.5,-241 903.5,-238 906.5,-238 906.5,-238 966.5,-238 966.5,-238 969.5,-238 972.5,-241 972.5,-244 972.5,-244 972.5,-250 972.5,-250 972.5,-253 969.5,-256 966.5,-256"/>
<text text-anchor="start" x="908.5" y="-244.8" font-family="Helvetica,sans-Serif" font-size="9.00">constants.ts</text>
</a>
</g>
</g>
<!-- src/api/players.tsx&#45;&gt;src/utils/constants.ts -->
<g id="edge4" class="edge">
<title>src/api/players.tsx&#45;&gt;src/utils/constants.ts</title>
<path fill="none" stroke="#000000" stroke-width="2" stroke-opacity="0.200000" d="M874.25,-247C880.69,-247 887.56,-247 894.28,-247"/>
<polygon fill="#000000" fill-opacity="0.200000" stroke="#000000" stroke-width="2" stroke-opacity="0.200000" points="894.39,-249.1 900.39,-247 894.39,-244.9 894.39,-249.1"/>
</g>
<!-- src/components/Footbar/styles.ts -->
<g id="node8" class="node">
<title>src/components/Footbar/styles.ts</title>
<g id="a_node8"><a xlink:href="src/components/Footbar/styles.ts" xlink:title="styles.ts">
<path fill="#ddfeff" stroke="black" d="M862.5,-50C862.5,-50 820.5,-50 820.5,-50 817.5,-50 814.5,-47 814.5,-44 814.5,-44 814.5,-38 814.5,-38 814.5,-35 817.5,-32 820.5,-32 820.5,-32 862.5,-32 862.5,-32 865.5,-32 868.5,-35 868.5,-38 868.5,-38 868.5,-44 868.5,-44 868.5,-47 865.5,-50 862.5,-50"/>
<text text-anchor="start" x="823" y="-38.8" font-family="Helvetica,sans-Serif" font-size="9.00">styles.ts</text>
</a>
</g>
</g>
<!-- src/components/Footbar/Footer.tsx&#45;&gt;src/components/Footbar/styles.ts -->
<g id="edge5" class="edge">
<title>src/components/Footbar/Footer.tsx&#45;&gt;src/components/Footbar/styles.ts</title>
<path fill="none" stroke="#000000" stroke-width="2" stroke-opacity="0.200000" d="M762.09,-41C776.35,-41 793.56,-41 808.22,-41"/>
<polygon fill="#000000" fill-opacity="0.200000" stroke="#000000" stroke-width="2" stroke-opacity="0.200000" points="808.33,-43.1 814.33,-41 808.33,-38.9 808.33,-43.1"/>
</g>
<!-- src/components/Statistics/PlayersStatistics.tsx -->
<g id="node9" class="node">
<title>src/components/Statistics/PlayersStatistics.tsx</title>
<g id="a_node9"><a xlink:href="src/components/Statistics/PlayersStatistics.tsx" xlink:title="PlayersStatistics.tsx">
<path fill="#bbfeff" stroke="black" d="M779,-170C779,-170 685,-170 685,-170 682,-170 679,-167 679,-164 679,-164 679,-158 679,-158 679,-155 682,-152 685,-152 685,-152 779,-152 779,-152 782,-152 785,-155 785,-158 785,-158 785,-164 785,-164 785,-167 782,-170 779,-170"/>
<text text-anchor="start" x="687" y="-158.8" font-family="Helvetica,sans-Serif" font-size="9.00">PlayersStatistics.tsx</text>
</a>
</g>
</g>
<!-- src/components/Statistics/PlayersStatistics.tsx&#45;&gt;src/api/players.tsx -->
<g id="edge7" class="edge">
<title>src/components/Statistics/PlayersStatistics.tsx&#45;&gt;src/api/players.tsx</title>
<path fill="none" stroke="#000000" stroke-width="2" stroke-opacity="0.200000" d="M744.5,-170.2C763.66,-185.53 802.15,-216.32 824.13,-233.9"/>
<polygon fill="#000000" fill-opacity="0.200000" stroke="#000000" stroke-width="2" stroke-opacity="0.200000" points="823.08,-235.75 829.08,-237.86 825.7,-232.47 823.08,-235.75"/>
</g>
<!-- src/components/Statistics/index.ts -->
<g id="node10" class="node">
<title>src/components/Statistics/index.ts</title>
<g id="a_node10"><a xlink:href="src/components/Statistics/index.ts" xlink:title="index.ts">
<path fill="#ddfeff" stroke="black" d="M660,-170C660,-170 618,-170 618,-170 615,-170 612,-167 612,-164 612,-164 612,-158 612,-158 612,-155 615,-152 618,-152 618,-152 660,-152 660,-152 663,-152 666,-155 666,-158 666,-158 666,-164 666,-164 666,-167 663,-170 660,-170"/>
<text text-anchor="start" x="620.5" y="-158.8" font-family="Helvetica,sans-Serif" font-size="9.00">index.ts</text>
</a>
</g>
</g>
<!-- src/components/Statistics/index.ts&#45;&gt;src/components/Statistics/PlayersStatistics.tsx -->
<g id="edge8" class="edge">
<title>src/components/Statistics/index.ts&#45;&gt;src/components/Statistics/PlayersStatistics.tsx</title>
<path fill="none" stroke="#000000" stroke-width="2" stroke-opacity="0.200000" d="M666.32,-161C668.32,-161 670.37,-161 672.47,-161"/>
<polygon fill="#000000" fill-opacity="0.200000" stroke="#000000" stroke-width="2" stroke-opacity="0.200000" points="672.85,-163.1 678.85,-161 672.85,-158.9 672.85,-163.1"/>
</g>
<!-- src/index.css -->
<g id="node12" class="node">
<title>src/index.css</title>
<g id="a_node12"><a xlink:href="src/index.css" xlink:title="index.css">
<path fill="#ffffcc" stroke="black" d="M154,-140C154,-140 107,-140 107,-140 104,-140 101,-137 101,-134 101,-134 101,-128 101,-128 101,-125 104,-122 107,-122 107,-122 154,-122 154,-122 157,-122 160,-125 160,-128 160,-128 160,-134 160,-134 160,-137 157,-140 154,-140"/>
<text text-anchor="start" x="109" y="-128.8" font-family="Helvetica,sans-Serif" font-size="9.00">index.css</text>
</a>
</g>
</g>
<!-- src/main.tsx -->
<g id="node13" class="node">
<title>src/main.tsx</title>
<g id="a_node13"><a xlink:href="src/main.tsx" xlink:title="main.tsx">
<path fill="#bbfeff" stroke="black" d="M74,-134C74,-134 30,-134 30,-134 27,-134 24,-131 24,-128 24,-128 24,-122 24,-122 24,-119 27,-116 30,-116 30,-116 74,-116 74,-116 77,-116 80,-119 80,-122 80,-122 80,-128 80,-128 80,-131 77,-134 74,-134"/>
<text text-anchor="start" x="32" y="-122.8" font-family="Helvetica,sans-Serif" font-size="9.00">main.tsx</text>
</a>
</g>
</g>
<!-- src/main.tsx&#45;&gt;src/App.tsx -->
<g id="edge10" class="edge">
<title>src/main.tsx&#45;&gt;src/App.tsx</title>
<path fill="none" stroke="#000000" stroke-width="2" stroke-opacity="0.200000" d="M80.19,-116.47C85.86,-114.69 91.88,-112.8 97.7,-110.98"/>
<polygon fill="#000000" fill-opacity="0.200000" stroke="#000000" stroke-width="2" stroke-opacity="0.200000" points="98.33,-112.98 103.43,-109.18 97.07,-108.97 98.33,-112.98"/>
</g>
<!-- src/main.tsx&#45;&gt;src/index.css -->
<g id="edge11" class="edge">
<title>src/main.tsx&#45;&gt;src/index.css</title>
<path fill="none" stroke="#000000" stroke-width="2" stroke-opacity="0.200000" d="M80.19,-127.13C84.9,-127.5 89.85,-127.89 94.73,-128.27"/>
<polygon fill="#000000" fill-opacity="0.200000" stroke="#000000" stroke-width="2" stroke-opacity="0.200000" points="94.7,-130.38 100.85,-128.75 95.03,-126.19 94.7,-130.38"/>
</g>
<!-- src/pages/Home/Home.tsx -->
<g id="node14" class="node">
<title>src/pages/Home/Home.tsx</title>
<g id="a_node14"><a xlink:href="src/pages/Home/Home.tsx" xlink:title="Home.tsx">
<path fill="#bbfeff" stroke="black" d="M558.5,-217C558.5,-217 511.5,-217 511.5,-217 508.5,-217 505.5,-214 505.5,-211 505.5,-211 505.5,-205 505.5,-205 505.5,-202 508.5,-199 511.5,-199 511.5,-199 558.5,-199 558.5,-199 561.5,-199 564.5,-202 564.5,-205 564.5,-205 564.5,-211 564.5,-211 564.5,-214 561.5,-217 558.5,-217"/>
<text text-anchor="start" x="513.5" y="-205.8" font-family="Helvetica,sans-Serif" font-size="9.00">Home.tsx</text>
</a>
</g>
</g>
<!-- src/pages/Home/index.ts -->
<g id="node15" class="node">
<title>src/pages/Home/index.ts</title>
<g id="a_node15"><a xlink:href="src/pages/Home/index.ts" xlink:title="index.ts">
<path fill="#ddfeff" stroke="black" d="M479,-217C479,-217 437,-217 437,-217 434,-217 431,-214 431,-211 431,-211 431,-205 431,-205 431,-202 434,-199 437,-199 437,-199 479,-199 479,-199 482,-199 485,-202 485,-205 485,-205 485,-211 485,-211 485,-214 482,-217 479,-217"/>
<text text-anchor="start" x="439.5" y="-205.8" font-family="Helvetica,sans-Serif" font-size="9.00">index.ts</text>
</a>
</g>
</g>
<!-- src/pages/Home/index.ts&#45;&gt;src/pages/Home/Home.tsx -->
<g id="edge12" class="edge">
<title>src/pages/Home/index.ts&#45;&gt;src/pages/Home/Home.tsx</title>
<path fill="none" stroke="#000000" stroke-width="2" stroke-opacity="0.200000" d="M485.23,-208C489.7,-208 494.41,-208 499.07,-208"/>
<polygon fill="#000000" fill-opacity="0.200000" stroke="#000000" stroke-width="2" stroke-opacity="0.200000" points="499.35,-210.1 505.35,-208 499.35,-205.9 499.35,-210.1"/>
</g>
<!-- src/pages/Statistics/Statistics.tsx -->
<g id="node16" class="node">
<title>src/pages/Statistics/Statistics.tsx</title>
<g id="a_node16"><a xlink:href="src/pages/Statistics/Statistics.tsx" xlink:title="Statistics.tsx">
<path fill="#bbfeff" stroke="black" d="M566,-157C566,-157 504,-157 504,-157 501,-157 498,-154 498,-151 498,-151 498,-145 498,-145 498,-142 501,-139 504,-139 504,-139 566,-139 566,-139 569,-139 572,-142 572,-145 572,-145 572,-151 572,-151 572,-154 569,-157 566,-157"/>
<text text-anchor="start" x="506" y="-145.8" font-family="Helvetica,sans-Serif" font-size="9.00">Statistics.tsx</text>
</a>
</g>
</g>
<!-- src/pages/Statistics/Statistics.tsx&#45;&gt;src/components/Statistics/index.ts -->
<g id="edge13" class="edge">
<title>src/pages/Statistics/Statistics.tsx&#45;&gt;src/components/Statistics/index.ts</title>
<path fill="none" stroke="#000000" stroke-width="2" stroke-opacity="0.200000" d="M572.25,-152.62C583.16,-154.01 595.06,-155.53 605.7,-156.88"/>
<polygon fill="#000000" fill-opacity="0.200000" stroke="#000000" stroke-width="2" stroke-opacity="0.200000" points="605.59,-158.99 611.8,-157.66 606.12,-154.82 605.59,-158.99"/>
</g>
<!-- src/pages/Statistics/index.ts -->
<g id="node17" class="node">
<title>src/pages/Statistics/index.ts</title>
<g id="a_node17"><a xlink:href="src/pages/Statistics/index.ts" xlink:title="index.ts">
<path fill="#ddfeff" stroke="black" d="M479,-157C479,-157 437,-157 437,-157 434,-157 431,-154 431,-151 431,-151 431,-145 431,-145 431,-142 434,-139 437,-139 437,-139 479,-139 479,-139 482,-139 485,-142 485,-145 485,-145 485,-151 485,-151 485,-154 482,-157 479,-157"/>
<text text-anchor="start" x="439.5" y="-145.8" font-family="Helvetica,sans-Serif" font-size="9.00">index.ts</text>
</a>
</g>
</g>
<!-- src/pages/Statistics/index.ts&#45;&gt;src/pages/Statistics/Statistics.tsx -->
<g id="edge14" class="edge">
<title>src/pages/Statistics/index.ts&#45;&gt;src/pages/Statistics/Statistics.tsx</title>
<path fill="none" stroke="#000000" stroke-width="2" stroke-opacity="0.200000" d="M485.23,-148C487.26,-148 489.34,-148 491.43,-148"/>
<polygon fill="#000000" fill-opacity="0.200000" stroke="#000000" stroke-width="2" stroke-opacity="0.200000" points="491.76,-150.1 497.76,-148 491.76,-145.9 491.76,-150.1"/>
</g>
<!-- src/routes/routes.tsx -->
<g id="node19" class="node">
<title>src/routes/routes.tsx</title>
<g id="a_node19"><a xlink:href="src/routes/routes.tsx" xlink:title="routes.tsx">
<path fill="#bbfeff" stroke="black" d="M393,-157C393,-157 343,-157 343,-157 340,-157 337,-154 337,-151 337,-151 337,-145 337,-145 337,-142 340,-139 343,-139 343,-139 393,-139 393,-139 396,-139 399,-142 399,-145 399,-145 399,-151 399,-151 399,-154 396,-157 393,-157"/>
<text text-anchor="start" x="345" y="-145.8" font-family="Helvetica,sans-Serif" font-size="9.00">routes.tsx</text>
</a>
</g>
</g>
<!-- src/routes/Navigation.tsx&#45;&gt;src/routes/routes.tsx -->
<g id="edge15" class="edge">
<title>src/routes/Navigation.tsx&#45;&gt;src/routes/routes.tsx</title>
<path fill="none" stroke="#000000" stroke-width="2" stroke-opacity="0.200000" d="M324.3,-148C326.36,-148 328.43,-148 330.47,-148"/>
<polygon fill="#000000" fill-opacity="0.200000" stroke="#000000" stroke-width="2" stroke-opacity="0.200000" points="330.55,-150.1 336.55,-148 330.55,-145.9 330.55,-150.1"/>
</g>
<!-- src/routes/routes.tsx&#45;&gt;src/pages/Home/index.ts -->
<g id="edge17" class="edge">
<title>src/routes/routes.tsx&#45;&gt;src/pages/Home/index.ts</title>
<path fill="none" stroke="#000000" stroke-width="2" stroke-opacity="0.200000" d="M378.76,-157.09C387.77,-165.21 401.71,-177.17 415,-186 420.35,-189.55 426.34,-192.98 432.08,-196.04"/>
<polygon fill="#000000" fill-opacity="0.200000" stroke="#000000" stroke-width="2" stroke-opacity="0.200000" points="431.41,-198.06 437.7,-198.95 433.34,-194.33 431.41,-198.06"/>
</g>
<!-- src/routes/routes.tsx&#45;&gt;src/pages/Statistics/index.ts -->
<g id="edge18" class="edge">
<title>src/routes/routes.tsx&#45;&gt;src/pages/Statistics/index.ts</title>
<path fill="none" stroke="#000000" stroke-width="2" stroke-opacity="0.200000" d="M399.28,-148C407.45,-148 416.31,-148 424.58,-148"/>
<polygon fill="#000000" fill-opacity="0.200000" stroke="#000000" stroke-width="2" stroke-opacity="0.200000" points="424.77,-150.1 430.77,-148 424.77,-145.9 424.77,-150.1"/>
</g>
<!-- src/types.ts -->
<g id="node20" class="node">
<title>src/types.ts</title>
<g id="a_node20"><a xlink:href="src/types.ts" xlink:title="types.ts">
<path fill="#ccffcc" stroke="black" d="M73,-93C73,-93 31,-93 31,-93 28,-93 25,-90 25,-87 25,-87 25,-81 25,-81 25,-78 28,-75 31,-75 31,-75 73,-75 73,-75 76,-75 79,-78 79,-81 79,-81 79,-87 79,-87 79,-90 76,-93 73,-93"/>
<text text-anchor="start" x="33.5" y="-81.8" font-family="Helvetica,sans-Serif" font-size="9.00">types.ts</text>
</a>
</g>
</g>
<!-- src/vite&#45;env.d.ts -->
<g id="node21" class="node">
<title>src/vite&#45;env.d.ts</title>
<g id="a_node21"><a xlink:href="src/vite-env.d.ts" xlink:title="vite&#45;env.d.ts">
<path fill="#ccffcc" stroke="black" d="M82,-40C82,-40 22,-40 22,-40 19,-40 16,-37 16,-34 16,-34 16,-28 16,-28 16,-25 19,-22 22,-22 22,-22 82,-22 82,-22 85,-22 88,-25 88,-28 88,-28 88,-34 88,-34 88,-37 85,-40 82,-40"/>
<text text-anchor="start" x="24" y="-28.8" font-family="Helvetica,sans-Serif" font-size="9.00">vite&#45;env.d.ts</text>
</a>
</g>
</g>
</g>
</svg>
